<svg width="300" height="300" viewBox="0 0 300 300" fill="none" xmlns="http://www.w3.org/2000/svg">
<circle cx="150" cy="150" r="150" fill="#D2D2D2"/>
<circle cx="150" cy="89" r="52" fill="#007BFF"/>
<mask id="path-3-inside-1_1_20" fill="white">
<path d="M248 141.5C270.091 141.5 288.57 159.799 282.037 180.902C275.503 202.009 263.757 221.429 247.581 237.313C221.701 262.724 186.6 277 150 277C113.4 277 78.2993 262.724 52.4193 237.313C36.2427 221.43 24.497 202.009 17.9632 180.902C11.4304 159.799 29.9086 141.5 52 141.5L150 141.5H248Z"/>
</mask>
<path d="M248 141.5C270.091 141.5 288.57 159.799 282.037 180.902C275.503 202.009 263.757 221.429 247.581 237.313C221.701 262.724 186.6 277 150 277C113.4 277 78.2993 262.724 52.4193 237.313C36.2427 221.43 24.497 202.009 17.9632 180.902C11.4304 159.799 29.9086 141.5 52 141.5L150 141.5H248Z" fill="#007BFF" stroke="#D2D2D2" stroke-width="20" mask="url(#path-3-inside-1_1_20)"/>
</svg>
